<?xml version="1.0" standalone="no"?>
<!DOCTYPE svg PUBLIC "-//W3C//DTD SVG 20010904//EN"
 "http://www.w3.org/TR/2001/REC-SVG-20010904/DTD/svg10.dtd">
<svg version="1.0" xmlns="http://www.w3.org/2000/svg"
 width="400.000000pt" height="400.000000pt" viewBox="0 0 400.000000 400.000000"
 preserveAspectRatio="xMidYMid meet">
<metadata>
Created by potrace 1.14, written by Peter Selinger 2001-2017
</metadata>
<g transform="translate(0.000000,400.000000) scale(0.100000,-0.100000)"
fill="#000000" stroke="none">
<path d="M2661 3913 c-1 -6 -10 -10 -21 -8 -11 2 -20 -2 -20 -8 0 -7 -4 -6
-10 3 -9 13 -10 13 -10 0 0 -13 -1 -13 -10 0 -8 13 -10 13 -10 -2 0 -11 -5
-15 -14 -12 -8 3 -17 0 -21 -5 -3 -6 -11 -9 -16 -6 -5 4 -9 1 -9 -5 0 -6 -4
-9 -9 -5 -5 3 -17 -5 -25 -17 -9 -12 -16 -17 -16 -10 0 7 -5 10 -10 7 -6 -4
-8 -11 -5 -16 4 -5 0 -9 -7 -9 -13 0 -98 -88 -98 -102 0 -5 -5 -6 -12 -2 -6 4
-8 3 -4 -4 3 -6 0 -17 -8 -25 -8 -8 -12 -17 -9 -21 4 -3 1 -6 -6 -6 -7 0 -9
-4 -6 -10 3 -5 -1 -10 -9 -10 -10 0 -13 -6 -10 -15 4 -8 -1 -17 -10 -21 -9 -3
-13 -11 -10 -16 4 -6 -4 -20 -17 -30 -13 -11 -18 -17 -11 -13 16 8 15 -10 -1
-27 -8 -7 -13 -21 -11 -31 1 -9 -2 -17 -7 -17 -6 0 -7 -4 -4 -10 3 -5 2 -10
-4 -10 -6 0 -7 -7 -4 -17 4 -9 2 -14 -3 -11 -5 4 -10 -10 -11 -30 -3 -40 -36
-77 -60 -68 -9 4 -11 1 -7 -6 5 -8 2 -9 -10 -5 -10 4 -15 3 -11 -3 3 -5 -6
-12 -20 -16 -14 -3 -25 -9 -25 -13 0 -4 -11 -14 -25 -21 -13 -7 -22 -18 -18
-23 3 -6 2 -7 -3 -4 -6 3 -16 2 -24 -3 -8 -5 -21 -5 -31 1 -12 6 -19 5 -22 -4
-4 -8 -6 -9 -6 0 -1 8 -10 9 -30 3 -19 -5 -33 -4 -41 3 -10 9 -11 8 -6 -8 6
-16 5 -18 -5 -7 -17 16 -73 17 -63 0 5 -7 3 -8 -7 -2 -20 12 -71 12 -88 0 -11
-8 -13 -8 -7 2 4 6 3 12 -1 12 -5 0 -15 -6 -22 -12 -11 -11 -12 -10 -6 0 6 11
3 12 -11 4 -11 -5 -25 -7 -31 -5 -7 3 -13 0 -13 -7 0 -7 -6 -8 -19 0 -14 7
-22 7 -27 -2 -5 -7 -3 -8 6 -3 8 5 11 4 7 -2 -3 -5 -16 -9 -29 -8 -13 1 -29
-5 -36 -14 -8 -9 -11 -11 -8 -4 4 7 -1 11 -13 10 -11 0 -17 -5 -15 -9 3 -4 -6
-8 -20 -8 -13 0 -31 -7 -39 -15 -8 -8 -17 -11 -21 -8 -3 3 -12 0 -21 -7 -8 -7
-15 -10 -15 -6 0 4 -18 -3 -40 -14 -21 -11 -46 -20 -55 -20 -8 0 -15 -4 -15
-8 0 -4 -10 -8 -21 -9 -12 -1 -29 -9 -38 -17 -10 -9 -22 -16 -28 -16 -14 0
-94 -41 -111 -57 -7 -7 -18 -13 -24 -13 -6 0 -44 -20 -85 -45 -40 -25 -78 -45
-83 -45 -6 0 -10 -4 -10 -10 0 -5 -6 -10 -13 -10 -7 0 -23 -9 -35 -20 -12 -11
-24 -20 -27 -20 -21 1 -25 -2 -25 -16 0 -8 -4 -13 -8 -10 -5 3 -25 -6 -45 -19
-20 -14 -41 -25 -47 -25 -6 0 -8 -4 -5 -10 3 -5 0 -10 -7 -10 -8 0 -28 -13
-46 -30 -18 -16 -38 -30 -43 -30 -6 0 -7 -4 -4 -10 3 -5 -1 -10 -9 -10 -9 0
-16 -7 -16 -15 0 -8 -4 -15 -10 -15 -13 0 -52 -63 -74 -119 -20 -53 -23 -191
-3 -191 4 0 6 -4 3 -9 -4 -5 -1 -22 6 -38 6 -15 11 -31 10 -35 -1 -5 3 -8 10
-8 6 0 9 -3 5 -6 -3 -3 -1 -11 4 -18 39 -47 49 -60 49 -68 0 -4 7 -8 17 -8 9
0 13 -3 10 -6 -8 -8 51 -61 76 -70 9 -3 17 -9 17 -13 0 -8 37 -28 53 -29 5 0
15 -9 23 -19 7 -10 14 -14 14 -9 0 5 9 1 20 -9 11 -10 20 -15 20 -12 0 4 16
-2 36 -13 19 -11 39 -18 44 -15 5 3 11 1 15 -5 4 -6 11 -8 16 -5 5 4 9 1 9 -6
0 -7 3 -10 6 -7 3 3 32 -2 65 -12 32 -10 59 -16 59 -13 0 3 12 -2 26 -12 18
-11 24 -12 18 -4 -6 12 -5 12 9 0 9 -7 17 -11 17 -8 0 3 16 -1 35 -9 19 -8 35
-11 35 -8 0 4 6 2 12 -3 7 -6 38 -16 68 -24 75 -18 82 -25 75 -70 -4 -22 -2
-40 4 -44 6 -3 11 -1 11 6 0 7 3 10 6 7 3 -4 21 4 40 17 26 18 41 21 66 16 18
-4 48 -6 66 -6 23 1 36 -5 43 -17 6 -10 15 -15 21 -12 6 4 8 3 4 -4 -3 -6 -1
-14 6 -19 20 -13 44 -70 53 -126 7 -44 11 -55 29 -82 10 -15 13 -24 7 -21 -6
4 -4 -8 5 -26 8 -18 17 -41 21 -50 3 -10 9 -18 14 -18 5 0 9 -6 9 -14 0 -34
37 -29 44 5 2 8 8 28 15 44 l13 30 15 -30 c9 -16 21 -33 27 -37 6 -4 7 -8 3
-8 -5 0 19 -28 52 -62 60 -60 65 -77 21 -78 -9 0 -26 -7 -38 -16 -12 -8 -22
-12 -22 -9 0 3 -10 0 -22 -7 -13 -7 -26 -11 -29 -11 -11 3 -73 -70 -96 -112
-18 -33 -46 -117 -45 -135 0 -3 -4 -11 -10 -17 -6 -7 -8 -13 -5 -13 3 0 1 -15
-5 -32 -5 -18 -11 -42 -13 -53 -2 -11 -4 -22 -5 -25 -3 -6 -3 -6 -15 -75 -4
-27 -9 -57 -10 -65 0 -9 -4 -20 -8 -26 -3 -6 -7 -27 -9 -47 -1 -21 -5 -37 -8
-37 -3 0 -5 -15 -6 -33 -2 -68 -24 -196 -35 -203 -5 -3 -9 0 -9 6 0 6 -4 8
-10 5 -5 -3 -10 -2 -10 3 0 6 -33 45 -74 89 -165 174 -165 174 -156 192 9 17
37 111 44 146 2 11 11 47 21 80 9 33 18 71 20 85 2 14 7 41 10 60 14 78 13
204 -1 232 -8 16 -12 28 -9 28 3 0 0 6 -7 14 -7 8 -15 14 -18 13 -3 0 -27 10
-55 23 -27 12 -63 25 -80 27 -90 11 -120 14 -222 17 -62 2 -113 1 -113 -3 0
-3 -15 -7 -32 -8 -79 -4 -108 -9 -108 -15 0 -5 -9 -8 -19 -8 -11 0 -32 -5 -48
-12 -15 -6 -30 -12 -33 -12 -24 -5 -72 -46 -84 -71 -14 -30 -19 -145 -6 -145
4 0 6 -10 5 -23 -1 -12 4 -40 12 -62 18 -51 19 -100 4 -118 -6 -8 -11 -37 -11
-63 1 -27 1 -66 0 -87 -1 -42 56 -167 76 -167 7 0 14 -4 16 -9 2 -5 17 -11 33
-13 37 -4 53 -18 57 -51 2 -15 7 -29 10 -33 4 -3 -2 -26 -13 -51 -28 -67 -31
-95 -9 -120 10 -13 23 -23 29 -23 6 0 11 -4 11 -10 0 -5 7 -10 15 -10 15 0 16
-24 2 -60 -10 -25 -37 -127 -37 -139 0 -8 307 -10 1108 -9 l1107 3 -2 180 c-1
179 -7 295 -19 410 -3 33 -7 76 -8 95 0 19 -4 37 -8 40 -4 3 -9 29 -10 58 -2
29 -6 52 -10 52 -3 0 -5 11 -3 25 1 14 -1 28 -6 31 -4 2 -6 11 -2 19 3 8 1 15
-3 15 -5 0 -10 11 -10 24 -2 35 -32 91 -65 122 -53 50 -69 64 -71 63 -2 -1
-25 8 -53 21 -27 12 -54 23 -60 25 -5 1 -23 7 -38 13 -16 7 -35 12 -43 12 -8
0 -14 4 -14 8 0 4 -12 9 -26 10 -25 2 -79 32 -58 32 27 0 187 147 178 162 -14
22 27 4 48 -21 14 -16 34 -32 45 -35 16 -5 23 0 33 26 6 18 16 44 22 58 5 14
9 25 7 25 -1 0 3 10 9 21 6 12 14 36 17 54 3 18 9 38 13 44 3 6 7 18 7 26 1 8
2 26 3 39 1 13 5 21 9 17 11 -10 31 -76 24 -76 -4 0 -8 -16 -9 -37 -2 -20 -5
-40 -8 -44 -9 -15 37 -30 67 -24 17 4 28 9 25 12 -3 3 -1 15 5 26 8 15 8 18
-1 12 -9 -6 -9 -3 -1 13 6 11 11 32 11 45 0 34 16 43 78 45 66 2 141 10 152
17 5 3 11 1 15 -5 4 -6 11 -8 16 -4 12 7 39 11 114 18 33 3 71 8 85 10 27 5
86 14 140 22 19 2 55 9 80 14 25 5 59 12 75 15 17 3 46 9 65 13 l35 8 3 382
c2 358 1 383 -15 389 -10 4 -25 15 -34 25 -9 10 -21 18 -27 18 -6 0 -16 8 -21
18 -6 9 -11 13 -11 8 0 -5 -8 0 -17 10 -10 11 -30 25 -45 33 -16 8 -28 18 -28
23 0 5 -4 6 -10 3 -5 -3 -10 0 -10 7 0 8 -9 14 -20 15 -11 1 -32 11 -46 22
-15 12 -33 21 -40 21 -8 0 -14 5 -14 10 0 6 -9 10 -20 10 -11 0 -20 5 -20 10
0 6 -9 10 -21 10 -11 0 -17 5 -14 10 3 6 -4 10 -18 10 -14 0 -30 7 -37 15 -7
8 -16 12 -21 9 -5 -3 -9 -2 -9 3 0 4 -11 13 -25 20 -14 6 -23 7 -19 2 11 -18
-9 -9 -27 13 -11 11 -19 18 -19 13 0 -4 -8 -1 -17 6 -14 12 -15 12 -9 1 7 -11
4 -12 -13 -2 -12 6 -19 15 -16 20 3 4 -4 6 -15 3 -12 -3 -20 0 -20 6 0 7 -4 9
-10 6 -5 -3 -10 -2 -10 4 0 5 -9 8 -20 6 -11 -2 -20 0 -20 6 0 5 -9 9 -20 9
-11 0 -20 5 -20 11 0 5 -6 7 -12 3 -7 -4 -10 -4 -6 1 11 12 -11 47 -25 38 -7
-4 -7 0 2 10 12 15 11 17 -5 17 -15 0 -16 2 -5 9 11 7 9 10 -8 16 -18 5 -20 9
-10 21 9 11 8 14 -4 14 -20 0 -29 24 -14 39 9 9 8 16 -1 31 -10 16 -9 18 5 13
13 -5 15 -2 10 12 -4 9 -2 24 4 31 9 11 8 14 -2 14 -11 0 -11 2 1 10 13 9 13
10 0 10 -13 0 -13 1 0 10 13 9 13 10 0 10 -11 0 -12 2 -3 8 7 4 11 27 10 55
-1 26 2 47 7 47 5 0 4 6 -2 13 -8 10 -6 13 9 13 10 0 19 -4 19 -8 0 -4 9 -8
21 -8 13 0 18 -4 13 -12 -6 -10 -4 -10 7 -2 8 6 24 10 36 9 12 -1 24 4 27 12
3 7 13 13 22 13 14 0 15 2 3 17 -10 11 -10 14 -1 9 11 -6 17 5 13 27 0 4 4 7
10 7 6 0 8 9 4 21 -5 16 -4 19 5 14 9 -6 11 -4 4 6 -4 8 -9 23 -9 34 -2 43
-17 105 -27 111 -7 5 -8 2 -3 -7 5 -8 4 -11 -1 -6 -9 9 -11 14 -13 47 0 11 -8
20 -16 20 -8 0 -15 5 -15 11 0 5 4 7 10 4 6 -3 7 1 4 10 -4 9 -9 14 -11 11 -6
-6 -53 43 -53 55 0 5 -7 9 -15 9 -8 0 -15 6 -15 13 0 9 -3 8 -9 -2 -7 -11 -10
-9 -16 8 -5 18 -22 26 -47 22 -4 0 -4 7 -1 16 4 11 3 14 -5 9 -7 -4 -12 -2
-12 5 0 9 -4 9 -15 -1 -12 -10 -13 -8 -10 10 3 18 2 20 -10 10 -11 -9 -15 -9
-15 -1 0 6 -12 11 -26 11 -14 0 -23 4 -20 8 3 5 -24 9 -59 8 -36 -1 -67 4 -69
9 -3 6 -5 5 -5 -2z"/>
</g>
</svg>
